<svg width="512" height="512" viewBox="0 0 512 512" fill="none" xmlns="http://www.w3.org/2000/svg">
  <defs>
    <linearGradient id="bgGradient" x1="0" y1="0" x2="512" y2="512" gradientUnits="userSpaceOnUse">
      <stop offset="0%" stop-color="#38BDF8" />
      <stop offset="100%" stop-color="#3B82F6" />
    </linearGradient>
  </defs>
  <rect width="512" height="512" rx="128" fill="url(#bgGradient)" />
  <g transform="translate(256, 256)">
    <!-- First S -->
    <path d="M-60 -130 C-140 -130 -190 -80 -190 0 C-190 60 -150 90 -100 110 L-60 125 C-30 135 -10 150 -10 180 C-10 220 -45 240 -80 240 C-120 240 -150 220 -160 190 L-210 210 C-190 270 -140 310 -80 310 C10 310 60 260 60 180 C60 120 20 90 -30 70 L-70 55 C-100 45 -120 30 -120 0 C-120 -40 -90 -60 -60 -60 C-30 -60 0 -40 10 -10 L60 -30 C40 -90 -10 -130 -60 -130 Z" fill="white" fill-opacity="0.9" transform="translate(-70, -40) scale(0.85)"/>
    <!-- Second S -->
    <path d="M-60 -130 C-140 -130 -190 -80 -190 0 C-190 60 -150 90 -100 110 L-60 125 C-30 135 -10 150 -10 180 C-10 220 -45 240 -80 240 C-120 240 -150 220 -160 190 L-210 210 C-190 270 -140 310 -80 310 C10 310 60 260 60 180 C60 120 20 90 -30 70 L-70 55 C-100 45 -120 30 -120 0 C-120 -40 -90 -60 -60 -60 C-30 -60 0 -40 10 -10 L60 -30 C40 -90 -10 -130 -60 -130 Z" fill="white" fill-opacity="0.5" transform="translate(40, 70) scale(0.85)"/>
  </g>
</svg>
